<?xml version="1.0" encoding="UTF-8" standalone="no"?>
<svg
   xmlns:dc="http://purl.org/dc/elements/1.1/"
   xmlns:cc="http://creativecommons.org/ns#"
   xmlns:rdf="http://www.w3.org/1999/02/22-rdf-syntax-ns#"
   xmlns:svg="http://www.w3.org/2000/svg"
   xmlns="http://www.w3.org/2000/svg"
   version="1.1"
   id="svg4461"
   viewBox="0 0 509.79569 183.89343"
   height="51.898811mm"
   width="143.87567mm">
  <defs
     id="defs4463" />
  <metadata
     id="metadata4466">
    <rdf:RDF>
      <cc:Work
         rdf:about="">
        <dc:format>image/svg+xml</dc:format>
        <dc:type
           rdf:resource="http://purl.org/dc/dcmitype/StillImage" />
        <dc:title></dc:title>
      </cc:Work>
    </rdf:RDF>
  </metadata>
  <g
     transform="translate(-26.789352,-266.17994)"
     id="layer1">
    <g
       id="g4201">
      <rect
         style="color:#000000;clip-rule:nonzero;display:inline;overflow:visible;visibility:visible;opacity:1;isolation:auto;mix-blend-mode:normal;color-interpolation:sRGB;color-interpolation-filters:linearRGB;solid-color:#000000;solid-opacity:1;fill:#f0001c;fill-opacity:1;fill-rule:nonzero;stroke:none;stroke-width:5;stroke-linecap:butt;stroke-linejoin:miter;stroke-miterlimit:4;stroke-dasharray:none;stroke-dashoffset:0;stroke-opacity:1;color-rendering:auto;image-rendering:auto;shape-rendering:auto;text-rendering:auto;enable-background:accumulate"
         id="rect4456-5-4-6-8-7-5-7"
         width="25"
         height="24.999994"
         x="135"
         y="285.82132" />
      <rect
         style="color:#000000;clip-rule:nonzero;display:inline;overflow:visible;visibility:visible;opacity:1;isolation:auto;mix-blend-mode:normal;color-interpolation:sRGB;color-interpolation-filters:linearRGB;solid-color:#000000;solid-opacity:1;fill:#f0001c;fill-opacity:1;fill-rule:nonzero;stroke:none;stroke-width:5;stroke-linecap:butt;stroke-linejoin:miter;stroke-miterlimit:4;stroke-dasharray:none;stroke-dashoffset:0;stroke-opacity:1;color-rendering:auto;image-rendering:auto;shape-rendering:auto;text-rendering:auto;enable-background:accumulate"
         id="rect4460-6-0-3-4-2-5-9"
         width="25"
         height="24.999994"
         x="135"
         y="335.82114" />
      <rect
         style="color:#000000;clip-rule:nonzero;display:inline;overflow:visible;visibility:visible;opacity:1;isolation:auto;mix-blend-mode:normal;color-interpolation:sRGB;color-interpolation-filters:linearRGB;solid-color:#000000;solid-opacity:1;fill:#ffffff;fill-opacity:1;fill-rule:nonzero;stroke:none;stroke-width:5;stroke-linecap:butt;stroke-linejoin:miter;stroke-miterlimit:4;stroke-dasharray:none;stroke-dashoffset:0;stroke-opacity:1;color-rendering:auto;image-rendering:auto;shape-rendering:auto;text-rendering:auto;enable-background:accumulate"
         id="rect4500-0-7-1-6-6-8-4"
         width="25"
         height="63.540558"
         x="135"
         y="367.28064" />
      <path
         id="path4221"
         style="font-style:normal;font-variant:normal;font-weight:normal;font-stretch:normal;font-size:100px;line-height:100%;font-family:'Maven Pro';-inkscape-font-specification:'Maven Pro, Normal';text-align:start;letter-spacing:-5px;word-spacing:0px;writing-mode:lr-tb;text-anchor:start;fill:#f0001c;fill-opacity:1;stroke:none;stroke-width:1px;stroke-linecap:butt;stroke-linejoin:miter;stroke-opacity:1"
         d="m 216.63138,360.88423 -9.87456,0 0,-6.1869 c -2.83631,2.46771 -5.79517,4.38899 -8.87658,5.76386 -3.08143,1.37487 -6.42548,2.0623 -10.03214,2.0623 -7.00323,0 -12.5708,-2.71448 -16.7027,-8.14344 -4.09689,-5.42895 -6.14534,-12.95546 -6.14534,-22.57952 0,-5.00593 0.70032,-9.46542 2.10097,-13.37849 1.43566,-3.91309 3.36154,-7.2445 5.77765,-9.99423 2.3811,-2.67922 5.14738,-4.72389 8.29884,-6.13401 3.18647,-1.41012 6.47798,-2.11518 9.87455,-2.11518 3.08143,0 5.8127,0.3349 8.19379,1.00471 2.38109,0.63455 4.88475,1.63926 7.51096,3.01413 l 0,-20.30098 9.87456,0 z m -9.87456,-14.54184 0,-33.89574 c -2.66123,-1.1986 -5.04232,-2.02705 -7.14329,-2.48534 -2.10097,-0.45829 -4.39452,-0.68743 -6.88067,-0.68743 -5.53255,0 -9.83954,1.93891 -12.92097,5.81674 -3.08142,3.87783 -4.62213,9.3773 -4.62213,16.49839 0,7.01535 1.19055,12.35617 3.57164,16.02248 2.3811,3.63105 6.19786,5.44658 11.45028,5.44658 2.8013,0 5.63761,-0.61693 8.50894,-1.85079 2.87132,-1.26911 5.55005,-2.89074 8.0362,-4.86489 z" />
      <path
         id="path4223"
         style="font-style:normal;font-variant:normal;font-weight:normal;font-stretch:normal;font-size:100px;line-height:100%;font-family:'Maven Pro';-inkscape-font-specification:'Maven Pro, Normal';text-align:start;letter-spacing:-5px;word-spacing:0px;writing-mode:lr-tb;text-anchor:start;fill:#f0001c;fill-opacity:1;stroke:none;stroke-width:1px;stroke-linecap:butt;stroke-linejoin:miter;stroke-opacity:1"
         d="m 276.35046,332.3822 -43.22743,0 q 0,5.44659 1.62824,9.5183 1.62824,4.01884 4.46455,6.60994 2.73127,2.53821 6.4605,3.80731 3.78173,1.26912 8.29881,1.26912 5.98777,0 12.02805,-2.37959 6.09281,-2.43245 8.66649,-4.75915 l 0.52525,0 0,10.8403 q -4.98979,2.11517 -10.1897,3.54291 -5.19989,1.42776 -10.92504,1.42776 -14.60173,0 -22.79551,-7.93193 -8.19379,-7.98478 -8.19379,-22.6324 0,-14.48896 7.82612,-23.00256 7.87863,-8.51359 20.69454,-8.51359 11.87048,0 18.27843,6.98009 6.46049,6.98009 6.46049,19.82979 l 0,5.3937 z m -9.61193,-7.61463 q -0.0524,-7.82617 -3.93932,-12.1094 -3.83428,-4.28324 -11.71291,-4.28324 -7.93115,0 -12.65833,4.70628 -4.67467,4.70627 -5.30494,11.68636 l 33.6155,0 z" />
      <path
         id="path4225"
         style="font-style:normal;font-variant:normal;font-weight:normal;font-stretch:normal;font-size:100px;line-height:100%;font-family:'Maven Pro';-inkscape-font-specification:'Maven Pro, Normal';text-align:start;letter-spacing:-5px;word-spacing:0px;writing-mode:lr-tb;text-anchor:start;fill:#f0001c;fill-opacity:1;stroke:none;stroke-width:1px;stroke-linecap:butt;stroke-linejoin:miter;stroke-opacity:1"
         d="m 292.68454,360.6861 -9.87457,0 0,-76.78962 9.87457,0 z" />
      <path
         style="font-style:normal;font-variant:normal;font-weight:normal;font-stretch:normal;font-size:100px;line-height:100%;font-family:'Maven Pro';-inkscape-font-specification:'Maven Pro, Normal';text-align:start;letter-spacing:-5px;word-spacing:0px;writing-mode:lr-tb;text-anchor:start;fill:#f0001c;fill-opacity:1;stroke:none;stroke-width:1px;stroke-linecap:butt;stroke-linejoin:miter;stroke-opacity:1"
         d="m 302.75256,283.89648 0,18.64063 -6.67187,0 0,8.22851 6.67187,0 0,30.93165 c 0,7.04736 1.5574,12.16745 4.67383,15.36132 2.79711,2.86662 6.76094,4.43674 11.8711,4.73047 l 0,-8.91797 c -0.69824,-0.14574 -1.33388,-0.31925 -1.83985,-0.55078 -1.33061,-0.6596 -2.38004,-1.68362 -3.15039,-3.07226 -0.84038,-1.4928 -1.33064,-3.08993 -1.4707,-4.79102 -0.14007,-1.7358 -0.21094,-4.13248 -0.21094,-7.1875 l 0,-26.50391 6.67188,0 0,-8.22851 -6.67188,0 0,-18.64063 z"
         id="path4227" />
      <path
         id="path4229"
         style="font-style:normal;font-variant:normal;font-weight:normal;font-stretch:normal;font-size:100px;line-height:100%;font-family:'Maven Pro';-inkscape-font-specification:'Maven Pro, Normal';text-align:start;letter-spacing:-5px;word-spacing:0px;writing-mode:lr-tb;text-anchor:start;fill:#f0001c;fill-opacity:1;stroke:none;stroke-width:1px;stroke-linecap:butt;stroke-linejoin:miter;stroke-opacity:1"
         d="m 372.24798,360.6861 -9.82203,0 0,-6.29267 q -1.3131,0.89896 -3.57165,2.53823 -2.20601,1.58638 -4.30699,2.53821 -2.46863,1.21623 -5.6726,2.00942 -3.20399,0.84606 -7.51096,0.84606 -7.93117,0 -13.44621,-5.28793 -5.51506,-5.28796 -5.51506,-13.48427 0,-6.71569 2.83632,-10.84029 2.88884,-4.17747 8.19378,-6.55706 5.35748,-2.37956 12.86844,-3.22563 7.51096,-0.84607 16.12493,-1.26912 l 0,-1.5335 q 0,-3.38428 -1.20805,-5.60521 -1.15553,-2.22093 -3.36154,-3.49006 -2.10098,-1.21623 -5.04233,-1.63925 -2.94136,-0.42305 -6.14534,-0.42305 -3.8868,0 -8.6665,1.0576 -4.77971,1.0047 -9.87455,2.96125 l -0.52524,0 0,-10.09997 q 2.88882,-0.7932 8.35134,-1.74503 5.46252,-0.95182 10.76746,-0.95182 6.19787,0 10.76749,1.05758 4.62212,1.0047 7.98366,3.49005 3.30905,2.43246 5.04233,6.29264 1.7333,3.8602 1.7333,9.57119 l 0,40.08263 z m -9.82203,-14.54185 0,-16.44551 q -4.51708,0.2644 -10.66242,0.79318 -6.09281,0.5288 -9.66445,1.53352 -4.25446,1.21621 -6.88068,3.80731 -2.62621,2.53821 -2.62621,7.03297 0,5.07642 3.04641,7.66751 3.04641,2.53822 9.29679,2.53822 5.19989,0 9.50688,-2.00942 4.30698,-2.0623 7.98368,-4.91778 z" />
      <path
         id="path4208"
         style="font-style:normal;font-variant:normal;font-weight:normal;font-stretch:normal;font-size:100px;line-height:125%;font-family:'Maven Pro';-inkscape-font-specification:'Maven Pro, Normal';text-align:start;letter-spacing:0px;word-spacing:0px;writing-mode:lr-tb;text-anchor:start;fill:#ffffff;fill-opacity:1;stroke:none;stroke-width:1px;stroke-linecap:butt;stroke-linejoin:miter;stroke-opacity:1"
         d="m 216.63138,426.78204 q -5.35688,2.48383 -10.20087,3.86373 -4.78701,1.3799 -10.2009,1.3799 -6.89558,0 -12.65139,-1.93186 -5.7558,-1.98706 -9.85896,-5.96118 -4.16015,-3.97412 -6.43966,-10.04569 -2.27954,-6.07156 -2.27954,-14.18541 0,-15.12372 8.54824,-23.73431 8.60521,-8.6106 22.68131,-8.6106 5.47087,0 10.71379,1.4903 5.2999,1.4903 9.68798,3.64294 l 0,11.53598 -0.56988,0 q -4.90098,-3.69813 -10.14389,-5.68518 -5.18593,-1.98707 -10.14391,-1.98707 -9.11811,0 -14.41801,5.96118 -5.24293,5.90597 -5.24293,17.38676 0,11.14963 5.12894,17.166 5.18594,5.96118 14.532,5.96118 3.24832,0 6.61063,-0.82795 3.3623,-0.82793 6.04074,-2.15265 2.33654,-1.15912 4.38811,-2.42863 2.05158,-1.32469 3.24832,-2.26302 l 0.56988,0 0,11.42558 z" />
      <path
         id="path4210"
         style="font-style:normal;font-variant:normal;font-weight:normal;font-stretch:normal;font-size:100px;line-height:125%;font-family:'Maven Pro';-inkscape-font-specification:'Maven Pro, Normal';text-align:start;letter-spacing:0px;word-spacing:0px;writing-mode:lr-tb;text-anchor:start;fill:#ffffff;fill-opacity:1;stroke:none;stroke-width:1px;stroke-linecap:butt;stroke-linejoin:miter;stroke-opacity:1"
         d="m 276.35046,430.64577 -10.49478,0 0,-6.56834 q -1.40304,0.93833 -3.81628,2.64941 -2.35712,1.65589 -4.60198,2.64941 -2.63773,1.26952 -6.06115,2.09746 -3.42343,0.88313 -8.02542,0.88313 -8.47438,0 -14.36718,-5.5196 -5.89279,-5.51961 -5.89279,-14.07501 0,-7.00989 3.03058,-11.31521 3.0867,-4.36049 8.75501,-6.8443 5.7244,-2.48383 13.74983,-3.36696 8.02542,-0.88314 17.22938,-1.32472 l 0,-1.60067 q 0,-3.53256 -1.2908,-5.85079 -1.23468,-2.31824 -3.59179,-3.64295 -2.24487,-1.26952 -5.38769,-1.71108 -3.14282,-0.44157 -6.56624,-0.44157 -4.15301,0 -9.2601,1.10393 -5.10708,1.04872 -10.5509,3.09097 l -0.56121,0 0,-10.54245 q 3.08668,-0.82793 8.92336,-1.82146 5.83665,-0.99354 11.50495,-0.99354 6.62238,0 11.50498,1.10392 4.93872,1.04872 8.53052,3.64294 3.53566,2.53902 5.3877,6.56834 1.852,4.02932 1.852,9.99049 l 0,41.83865 z m -10.49478,-15.17892 0,-17.166 q -4.82646,0.27599 -11.39272,0.82795 -6.51012,0.55196 -10.3264,1.60069 -4.54588,1.26949 -7.35195,3.97412 -2.80611,2.6494 -2.80611,7.34108 0,5.29882 3.25508,8.00342 3.25504,2.64942 9.93355,2.64942 5.55606,0 10.15805,-2.09745 4.60199,-2.15265 8.5305,-5.13323 z" />
      <path
         id="path4212"
         style="font-style:normal;font-variant:normal;font-weight:normal;font-stretch:normal;font-size:100px;line-height:125%;font-family:'Maven Pro';-inkscape-font-specification:'Maven Pro, Normal';text-align:start;letter-spacing:0px;word-spacing:0px;writing-mode:lr-tb;text-anchor:start;fill:#ffffff;fill-opacity:1;stroke:none;stroke-width:1px;stroke-linecap:butt;stroke-linejoin:miter;stroke-opacity:1"
         d="m 372.24794,430.64576 -10.31555,0 0,-35.10472 q 0,-3.97413 -0.38409,-7.67226 -0.32922,-3.69815 -1.48149,-5.90599 -1.26202,-2.37342 -3.62141,-3.58773 -2.3594,-1.21432 -6.80388,-1.21432 -4.33473,0 -8.66944,2.20784 -4.33474,2.15265 -8.66946,5.51961 0.1646,1.26952 0.27435,2.98059 0.10978,1.65588 0.10978,3.31177 l 0,39.46521 -10.31555,0 0,-35.10472 q 0,-4.08451 -0.3841,-7.72745 -0.32921,-3.69814 -1.48148,-5.90599 -1.262,-2.37342 -3.62141,-3.53254 -2.35941,-1.21432 -6.80389,-1.21432 -4.22498,0 -8.50483,2.09745 -4.22499,2.09744 -8.44997,5.35402 l 0,46.03355 -10.31555,0 0,-61.65405 10.31555,0 0,6.84431 q 4.82855,-4.0293 9.60224,-6.29234 4.82856,-2.26304 10.26068,-2.26304 6.25518,0 10.5899,2.6494 4.38961,2.64942 6.52952,7.34109 6.25519,-5.29884 11.41294,-7.61707 5.15779,-2.37342 11.02887,-2.37342 10.09608,0 14.86977,6.18196 4.82854,6.12677 4.82854,17.16598 l 0,40.01718 z" />
      <rect
         style="color:#000000;clip-rule:nonzero;display:inline;overflow:visible;visibility:visible;opacity:1;isolation:auto;mix-blend-mode:normal;color-interpolation:sRGB;color-interpolation-filters:linearRGB;solid-color:#000000;solid-opacity:1;fill:#ffffff;fill-opacity:1;fill-rule:nonzero;stroke:none;stroke-width:1px;stroke-linecap:butt;stroke-linejoin:miter;stroke-miterlimit:4;stroke-dasharray:none;stroke-dashoffset:0;stroke-opacity:1;color-rendering:auto;image-rendering:auto;shape-rendering:auto;text-rendering:auto;enable-background:accumulate"
         id="rect4260"
         width="11.162927"
         height="61.654045"
         x="378.70749"
         y="368.9917" />
      <path
         id="path4216"
         style="font-style:normal;font-variant:normal;font-weight:normal;font-stretch:normal;font-size:100px;line-height:125%;font-family:'Maven Pro';-inkscape-font-specification:'Maven Pro, Normal';text-align:start;letter-spacing:0px;word-spacing:0px;writing-mode:lr-tb;text-anchor:start;fill:#ffffff;fill-opacity:1;stroke:none;stroke-width:1px;stroke-linecap:butt;stroke-linejoin:miter;stroke-opacity:1"
         d="m 451.78826,430.64577 -11.16292,0 0,-35.10472 q 0,-4.25009 -0.53439,-7.94825 -0.53439,-3.75332 -1.95945,-5.85077 -1.48443,-2.31824 -4.27515,-3.42216 -2.79073,-1.15912 -7.24404,-1.15912 -4.57204,0 -9.55973,2.09745 -4.98767,2.09744 -9.55974,5.35402 l 0,46.03355 -11.16291,0 0,-61.65405 11.16291,0 0,6.84431 q 5.22522,-4.0293 10.80668,-6.29234 5.58145,-2.26304 11.45979,-2.26304 10.74728,0 16.38811,6.01637 5.64084,6.01637 5.64084,17.33157 l 0,40.01718 z" />
      <path
         id="path4218"
         style="font-style:normal;font-variant:normal;font-weight:normal;font-stretch:normal;font-size:100px;line-height:125%;font-family:'Maven Pro';-inkscape-font-specification:'Maven Pro, Normal';text-align:start;letter-spacing:0px;word-spacing:0px;writing-mode:lr-tb;text-anchor:start;fill:#ffffff;fill-opacity:1;stroke:none;stroke-width:1px;stroke-linecap:butt;stroke-linejoin:miter;stroke-opacity:1"
         d="m 518.86852,399.84634 q 0,15.06853 -8.31281,23.78953 -8.31282,8.72097 -22.26647,8.72097 -14.07239,0 -22.38521,-8.72097 -8.25344,-8.721 -8.25344,-23.78953 0,-15.06853 8.25344,-23.78952 8.31282,-8.77617 22.38521,-8.77617 13.95365,0 22.26647,8.77617 8.31281,8.72099 8.31281,23.78952 z m -11.5192,0 q 0,-11.97755 -5.04705,-17.77314 -5.04706,-5.85078 -14.01303,-5.85078 -9.08471,0 -14.13178,5.85078 -4.98768,5.79559 -4.98768,17.77314 0,11.59118 5.04707,17.60757 5.04706,5.96117 14.07239,5.96117 8.90658,0 13.95365,-5.90597 5.10643,-5.9612 5.10643,-17.66277 z" />
      <g
         style="fill:#ffffff;fill-opacity:1"
         id="g4389">
        <path
           id="path6246-8-3-2"
           d="m 121.90039,283.89648 -77.394531,141.00586 3.507813,5.92578 77.392578,0 4,-4 0,-141.00585 -7.50586,-1.92579 z m -0.49414,17.52735 0,121.40429 -66.634766,0 66.634766,-121.40429 z"
           style="color:#000000;font-style:normal;font-variant:normal;font-weight:normal;font-stretch:normal;font-size:medium;line-height:normal;font-family:sans-serif;text-indent:0;text-align:start;text-decoration:none;text-decoration-line:none;text-decoration-style:solid;text-decoration-color:#000000;letter-spacing:normal;word-spacing:normal;text-transform:none;direction:ltr;block-progression:tb;writing-mode:lr-tb;baseline-shift:baseline;text-anchor:start;white-space:normal;clip-rule:nonzero;display:inline;overflow:visible;visibility:visible;opacity:1;isolation:auto;mix-blend-mode:normal;color-interpolation:sRGB;color-interpolation-filters:linearRGB;solid-color:#000000;solid-opacity:1;fill:#ffffff;fill-opacity:1;fill-rule:evenodd;stroke:none;stroke-width:8;stroke-linecap:butt;stroke-linejoin:bevel;stroke-miterlimit:4;stroke-dasharray:none;stroke-dashoffset:0;stroke-opacity:1;color-rendering:auto;image-rendering:auto;shape-rendering:auto;text-rendering:auto;enable-background:accumulate" />
        <path
           id="path4280-0"
           d="m 48.012872,426.82772 77.394288,0 0,-141.00638 -5.40716,9.99989 -15,110 -55.000001,15 z"
           style="color:#000000;clip-rule:nonzero;display:inline;overflow:visible;visibility:visible;opacity:1;isolation:auto;mix-blend-mode:normal;color-interpolation:sRGB;color-interpolation-filters:linearRGB;solid-color:#000000;solid-opacity:1;fill:#ffffff;fill-opacity:1;fill-rule:nonzero;stroke:none;stroke-width:5;stroke-linecap:butt;stroke-linejoin:miter;stroke-miterlimit:4;stroke-dasharray:none;stroke-dashoffset:0;stroke-opacity:1;color-rendering:auto;image-rendering:auto;shape-rendering:auto;text-rendering:auto;enable-background:accumulate" />
      </g>
      <rect
         style="color:#000000;clip-rule:nonzero;display:inline;overflow:visible;visibility:visible;opacity:1;isolation:auto;mix-blend-mode:normal;color-interpolation:sRGB;color-interpolation-filters:linearRGB;solid-color:#000000;solid-opacity:1;fill:#f0001c;fill-opacity:1;fill-rule:nonzero;stroke:none;stroke-width:1px;stroke-linecap:butt;stroke-linejoin:miter;stroke-miterlimit:4;stroke-dasharray:none;stroke-dashoffset:0;stroke-opacity:1;color-rendering:auto;image-rendering:auto;shape-rendering:auto;text-rendering:auto;enable-background:accumulate"
         id="rect4262-0"
         width="11.162927"
         height="8.1436005"
         x="378.70749"
         y="352.70447" />
    </g>
  </g>
</svg>
